<svg width="37" height="36" viewBox="0 0 37 36" fill="none" xmlns="http://www.w3.org/2000/svg">
<mask id="mask0_450_1451" style="mask-type:luminance" maskUnits="userSpaceOnUse" x="0" y="0" width="37" height="36">
<path d="M36.4063 0H0V36H36.4063V0Z" fill="white"/>
</mask>
<g mask="url(#mask0_450_1451)">
<path fill-rule="evenodd" clip-rule="evenodd" d="M18.0791 10.133C18.1202 10.1308 18.1615 10.1294 18.2031 10.129C18.2447 10.1294 18.2861 10.1308 18.3272 10.133L18.4178 10.1303L18.5401 10.1288L18.6623 10.1296L18.7845 10.1326L18.9067 10.1379L19.0289 10.1454L19.1511 10.1553L19.2734 10.1673L19.3956 10.1816L19.5178 10.1982L19.64 10.217L19.7623 10.2381L19.8845 10.2614L20.0067 10.2869L20.129 10.3146L20.2512 10.3446L20.3734 10.3766L20.4956 10.411L20.6179 10.4475L20.7401 10.4863L20.8623 10.5272L20.9846 10.5702L21.1068 10.6154L21.229 10.6627L21.3512 10.7122L21.4735 10.7638L21.5957 10.8175L21.7179 10.8732L21.8401 10.9311L21.9623 10.991L22.0846 11.053L22.2068 11.117L22.329 11.183L22.4512 11.251L22.5734 11.321L22.6957 11.393L22.8179 11.4669L22.9401 11.5427L23.0624 11.6205L23.1846 11.7001L23.3068 11.7816L23.429 11.865L23.5512 11.9502L23.6735 12.0372L23.7957 12.126L23.9179 12.2166L24.0402 12.3089L24.1624 12.4029L24.2846 12.4986L24.4068 12.5961L24.5291 12.6951L24.6513 12.7958L24.7735 12.8981L24.8957 13.0019L25.018 13.1073L25.1402 13.2143L25.2624 13.3227L25.3846 13.4327L25.5068 13.544L25.6291 13.6568L25.7513 13.771L25.8735 13.8864L25.9958 14.0033L26.118 14.1215L26.2403 14.2409L26.3625 14.3616L26.4847 14.4835L26.6069 14.6066L26.7291 14.7308L26.8513 14.8562L26.9735 14.9826L27.0958 15.1101L27.218 15.2386L27.3402 15.3682L27.4624 15.4987L27.5847 15.6302L27.7069 15.7626L27.8291 15.8957L27.9514 16.0298L28.0736 16.1647L28.1958 16.3003L28.318 16.4367L28.4403 16.5738L28.5625 16.7115L28.6847 16.8499L28.807 16.9889L28.9292 17.1284L29.0514 17.2685L29.1736 17.4091L29.2959 17.5501L29.4181 17.6916L29.5403 17.8335L29.6626 17.9757L29.7848 18.1182L31.8626 20.5568L31.9848 20.6992L32.107 20.8412L32.2292 20.9828L32.3515 21.1239L32.4737 21.2647L32.5959 21.4049L32.7182 21.5446L32.8404 21.6838L32.9106 21.7634C33.3878 22.2902 33.7853 22.6199 34.5202 22.7729C35.305 22.7729 35.9697 22.2463 36.1955 21.5193C36.1985 21.499 36.2119 21.4403 36.2256 21.3808L36.2256 21.3806V21.3804C36.2399 21.3182 36.2543 21.255 36.2573 21.2339C36.3843 20.3447 36.4063 19.5963 36.4063 18.6712C36.4063 8.36954 28.2592 0.0164688 18.2031 0C8.1471 0.0164688 0 8.36954 0 18.6712C0 19.5963 0.0220527 20.3447 0.148962 21.2339C0.151982 21.255 0.166413 21.3182 0.180641 21.3804C0.194287 21.4401 0.207749 21.499 0.210776 21.5193C0.436648 22.2463 1.10132 22.7729 1.88611 22.7729C2.62097 22.6199 3.01849 22.2902 3.49574 21.7634L3.56592 21.6838L3.68815 21.5446L3.81037 21.4049L3.93259 21.2647L4.05482 21.1239L4.17702 20.9828L4.29927 20.8412L4.42148 20.6992L4.54372 20.5568L6.62152 18.1182L6.74373 17.9757L6.86602 17.8335L6.98822 17.6916L7.11043 17.5501L7.23272 17.4091L7.35492 17.2685L7.47713 17.1284L7.59934 16.9889L7.72158 16.8499L7.84379 16.7115L7.966 16.5738L8.08828 16.4367L8.21049 16.3003L8.3327 16.1647L8.4549 16.0298L8.57715 15.8957L8.69936 15.7626L8.82157 15.6302L8.94385 15.4987L9.06606 15.3682L9.18827 15.2386L9.31047 15.1101L9.43276 14.9826L9.55497 14.8562L9.67717 14.7308L9.79942 14.6066L9.92163 14.4835L10.0438 14.3616L10.166 14.2409L10.2883 14.1215L10.4105 14.0033L10.5327 13.8864L10.6549 13.771L10.7772 13.6568L10.8994 13.544L11.0217 13.4327L11.1439 13.3227L11.2661 13.2143L11.3883 13.1073L11.5106 13.0019L11.6328 12.8981L11.755 12.7958L11.8772 12.6951L11.9995 12.5961L12.1217 12.4986L12.2439 12.4029L12.3661 12.3089L12.4884 12.2166L12.6106 12.126L12.7328 12.0372L12.8551 11.9502L12.9773 11.865L13.0995 11.7816L13.2217 11.7001L13.3439 11.6205L13.4661 11.5427L13.5884 11.4669L13.7106 11.393L13.8328 11.321L13.9551 11.251L14.0773 11.183L14.1995 11.117L14.3217 11.053L14.444 10.991L14.5662 10.9311L14.6884 10.8732L14.8106 10.8175L14.9328 10.7638L15.0551 10.7122L15.1773 10.6627L15.2995 10.6154L15.4217 10.5702L15.544 10.5272L15.6662 10.4863L15.7884 10.4475L15.9107 10.411L16.0329 10.3766L16.1551 10.3446L16.2773 10.3146L16.3996 10.2869L16.5218 10.2614L16.644 10.2381L16.7663 10.217L16.8885 10.1982L17.0107 10.1816L17.1329 10.1673L17.2552 10.1553L17.3774 10.1454L17.4996 10.1379L17.6218 10.1326L17.744 10.1296L17.8662 10.1288L17.9884 10.1303L18.0791 10.133ZM15.9091 16.2377L15.7884 16.2865L15.6662 16.3378L15.544 16.392L15.4217 16.449L15.2995 16.5088L15.1773 16.5716L15.0551 16.6371L14.9328 16.7054L14.8106 16.7765L14.6884 16.8504L14.5662 16.927L14.444 17.0064L14.3217 17.0884L14.1995 17.1732L14.0773 17.2606L13.9551 17.3507L13.8328 17.4434L13.7106 17.5387L13.5884 17.6365L13.4661 17.7371L13.3439 17.84L13.2217 17.9455L13.0995 18.0534L12.9773 18.1639L12.8551 18.2767L12.7328 18.392L12.6106 18.5095L12.5775 18.542L12.4884 18.6295L12.3661 18.7517L12.2439 18.8763L12.1217 19.0031L11.9995 19.1321L11.8772 19.2633L11.755 19.3966L11.6328 19.532L11.5106 19.6696L11.3883 19.8093L11.2661 19.9509L11.1439 20.0945L11.0217 20.2401L10.8994 20.3876L10.7772 20.5369L10.6549 20.6881L10.5327 20.8411L10.4105 20.9959L10.2883 21.1524L10.166 21.3105L10.0438 21.4704L9.92163 21.6318L9.79942 21.7948L9.67717 21.9594L9.55497 22.1254L9.43276 22.2929L9.31047 22.4617L9.18827 22.632L9.06606 22.8035L8.94385 22.9764L8.82157 23.1505L8.69936 23.3258L8.57715 23.5022L8.4549 23.6798L8.3327 23.8584L8.21049 24.038L8.08828 24.2186L7.966 24.4002L7.84379 24.5826L7.72158 24.7659L7.59934 24.95L7.47713 25.1348L7.35492 25.3203L7.23272 25.5065L7.11043 25.6933L6.98822 25.8807L6.86602 26.0685L6.76228 26.2284L6.17048 27.1468L5.03697 28.9087L4.58606 29.6097L4.56702 29.6392C4.50342 29.8254 4.46884 30.0255 4.46884 30.2339C4.46884 30.6526 4.6085 31.0379 4.84265 31.3437C4.91444 31.4233 4.98693 31.5021 5.06003 31.5803C6.51332 33.135 8.22644 34.4329 10.1281 35.4008C10.3163 35.4967 10.5065 35.5893 10.6984 35.6786C10.7958 35.7178 10.8948 35.7536 10.9953 35.786C11.4274 35.925 11.887 36 12.3639 36C13.284 36 14.1404 35.7208 14.8568 35.2406C15.1702 35.0306 15.4568 34.7821 15.7102 34.5017C16.4266 34.0215 17.283 33.7423 18.2031 33.7423C19.1232 33.7423 19.9797 34.0215 20.6961 34.5017C20.9495 34.7821 21.2361 35.0306 21.5495 35.2406C22.2659 35.7208 23.1223 36 24.0424 36C24.5193 36 24.9789 35.925 25.4109 35.786C25.5115 35.7536 25.6105 35.7178 25.7079 35.6786C25.8998 35.5893 26.09 35.4967 26.2782 35.4008C28.1798 34.4329 29.893 33.135 31.3462 31.5803C31.4194 31.5021 31.4918 31.4233 31.5636 31.3437C31.7978 31.0379 31.9374 30.6526 31.9374 30.2339C31.9374 30.0255 31.9029 29.8254 31.8392 29.6392L31.8202 29.6097L31.3693 28.9087L30.2358 27.1468L29.644 26.2284L29.5403 26.0685L29.4181 25.8807L29.2959 25.6933L29.1736 25.5065L29.0514 25.3203L28.9292 25.1348L28.807 24.95L28.6847 24.7659L28.5625 24.5826L28.4403 24.4002L28.318 24.2186L28.1958 24.038L28.0736 23.8584L27.9514 23.6798L27.8291 23.5022L27.7069 23.3258L27.5847 23.1505L27.4624 22.9764L27.3402 22.8035L27.218 22.632L27.0958 22.4617L26.9735 22.2929L26.8513 22.1254L26.7291 21.9594L26.6069 21.7948L26.4847 21.6318L26.3625 21.4704L26.2403 21.3105L26.118 21.1524L25.9958 20.9959L25.8735 20.8411L25.7513 20.6881L25.6291 20.5369L25.5068 20.3876L25.3846 20.2401L25.2624 20.0945L25.1402 19.9509L25.018 19.8093L24.8957 19.6696L24.7735 19.532L24.6513 19.3966L24.5291 19.2633L24.4068 19.1321L24.2846 19.0031L24.1624 18.8763L24.0402 18.7517L23.9179 18.6295L23.8288 18.542L23.7957 18.5095L23.6735 18.392L23.5512 18.2767L23.429 18.1639L23.3068 18.0534L23.1846 17.9455L23.0624 17.84L22.9401 17.7371L22.8179 17.6365L22.6957 17.5387L22.5734 17.4434L22.4512 17.3507L22.329 17.2606L22.2068 17.1732L22.0846 17.0884L21.9623 17.0064L21.8401 16.927L21.7179 16.8504L21.5957 16.7765L21.4735 16.7054L21.3512 16.6371L21.229 16.5716L21.1068 16.5088L20.9846 16.449L20.8623 16.392L20.7401 16.3378L20.6179 16.2865L20.4971 16.2377C19.7753 15.9954 19.0041 15.8644 18.2031 15.8644C17.4022 15.8644 16.631 15.9954 15.9091 16.2377Z" fill="#E20084"/>
</g>
</svg>
