<svg width="28" height="28" viewBox="0 0 28 28" fill="none" xmlns="http://www.w3.org/2000/svg">
<rect width="28" height="28" rx="14" fill="white"/>
<path d="M9.48828 13.7119C9.48828 13.6191 9.50537 13.5337 9.53955 13.4556C9.57373 13.3726 9.625 13.2969 9.69336 13.2285L15.5015 7.54492C15.6333 7.41797 15.792 7.35449 15.9775 7.35449C16.1045 7.35449 16.2168 7.38379 16.3145 7.44238C16.417 7.50098 16.4976 7.58154 16.5562 7.68408C16.6196 7.78174 16.6514 7.89404 16.6514 8.021C16.6514 8.20166 16.5854 8.36035 16.4536 8.49707L11.1216 13.7119L16.4536 18.9268C16.5854 19.0635 16.6514 19.2222 16.6514 19.4028C16.6514 19.5298 16.6196 19.6421 16.5562 19.7397C16.4976 19.8423 16.417 19.9229 16.3145 19.9814C16.2168 20.04 16.1045 20.0693 15.9775 20.0693C15.792 20.0693 15.6333 20.0034 15.5015 19.8716L9.69336 14.1953C9.625 14.127 9.57373 14.0537 9.53955 13.9756C9.50537 13.8926 9.48828 13.8047 9.48828 13.7119Z" fill="black"/>
</svg>
