<svg width="13" height="15" viewBox="0 0 13 15" fill="none" xmlns="http://www.w3.org/2000/svg">
<path d="M1.15039 14.0459C0.846029 14.0459 0.602539 13.9352 0.419922 13.7139C0.242839 13.498 0.154297 13.2103 0.154297 12.8506V1.17969C0.154297 0.819987 0.242839 0.532227 0.419922 0.316406C0.602539 0.100586 0.846029 -0.00732422 1.15039 -0.00732422C1.31641 -0.00732422 1.47412 0.023112 1.62354 0.0839844C1.77295 0.139323 1.93066 0.21403 2.09668 0.308105L11.7754 5.91113C12.124 6.11035 12.3647 6.2902 12.4976 6.45068C12.6359 6.60563 12.7051 6.79378 12.7051 7.01514C12.7051 7.23649 12.6359 7.42741 12.4976 7.58789C12.3647 7.74284 12.124 7.92269 11.7754 8.12744L2.09668 13.7222C1.93066 13.8218 1.77295 13.8993 1.62354 13.9546C1.47412 14.0155 1.31641 14.0459 1.15039 14.0459ZM1.57373 12.4604C1.6014 12.4604 1.6346 12.4494 1.67334 12.4272L10.8623 7.10645C10.8789 7.09538 10.8955 7.08431 10.9121 7.07324C10.9287 7.05664 10.937 7.03727 10.937 7.01514C10.937 6.993 10.9287 6.9764 10.9121 6.96533C10.8955 6.94873 10.8789 6.9349 10.8623 6.92383L1.67334 1.61133C1.6346 1.58366 1.6014 1.56982 1.57373 1.56982C1.51839 1.56982 1.49072 1.60303 1.49072 1.66943V12.3608C1.49072 12.4272 1.51839 12.4604 1.57373 12.4604Z" fill="#3C3C43" fill-opacity="0.6"/>
</svg>
