<svg width="21" height="17" viewBox="0 0 21 17" fill="none" xmlns="http://www.w3.org/2000/svg">
<path d="M1.72656 16.9829C1.15658 16.9829 0.724935 16.8446 0.431641 16.5679C0.14388 16.2967 0 15.89 0 15.3477V7.94336C0 7.40104 0.14388 6.99154 0.431641 6.71484C0.724935 6.43815 1.15658 6.2998 1.72656 6.2998H4.19189C4.76742 6.2998 5.19906 6.43815 5.48682 6.71484C5.78011 6.99154 5.92676 7.40104 5.92676 7.94336V15.3477C5.92676 15.89 5.78011 16.2967 5.48682 16.5679C5.19906 16.8446 4.76742 16.9829 4.19189 16.9829H1.72656ZM9.18896 16.9829C8.61898 16.9829 8.18734 16.8446 7.89404 16.5679C7.60628 16.2967 7.4624 15.89 7.4624 15.3477V1.64355C7.4624 1.10124 7.60628 0.691732 7.89404 0.415039C8.18734 0.138346 8.61898 0 9.18896 0H11.6626C12.2326 0 12.6615 0.138346 12.9492 0.415039C13.2425 0.691732 13.3892 1.10124 13.3892 1.64355V15.3477C13.3892 15.89 13.2425 16.2967 12.9492 16.5679C12.6615 16.8446 12.2326 16.9829 11.6626 16.9829H9.18896ZM16.6514 16.9829C16.0869 16.9829 15.658 16.8446 15.3647 16.5679C15.077 16.2967 14.9331 15.89 14.9331 15.3477V12.2285C14.9331 11.6862 15.077 11.2767 15.3647 11C15.658 10.7233 16.0869 10.585 16.6514 10.585H19.125C19.7005 10.585 20.1322 10.7233 20.4199 11C20.7132 11.2767 20.8599 11.6862 20.8599 12.2285V15.3477C20.8599 15.89 20.7132 16.2967 20.4199 16.5679C20.1322 16.8446 19.7005 16.9829 19.125 16.9829H16.6514Z" fill="#E20084"/>
</svg>
