<svg width="393" height="182" viewBox="0 0 393 182" fill="none" xmlns="http://www.w3.org/2000/svg">
<rect width="393" height="62" fill="#4361EE"/>
<rect y="62" width="393" height="120" fill="#4361EE"/>
<rect y="62" width="393" height="120" fill="#4361EE"/>
<path fill-rule="evenodd" clip-rule="evenodd" d="M112.722 101.955C112.787 101.951 112.852 101.949 112.918 101.948C112.983 101.949 113.049 101.951 113.113 101.955L113.256 101.95L113.449 101.948L113.641 101.949L113.834 101.954L114.026 101.962L114.219 101.973L114.412 101.988L114.604 102.007L114.797 102.029L114.99 102.054L115.182 102.083L115.375 102.115L115.568 102.151L115.76 102.19L115.953 102.232L116.145 102.278L116.338 102.327L116.531 102.38L116.724 102.436L116.916 102.495L117.109 102.558L117.302 102.624L117.494 102.693L117.687 102.765L117.879 102.841L118.072 102.92L118.265 103.002L118.457 103.088L118.65 103.176L118.843 103.268L119.035 103.363L119.228 103.461L119.42 103.562L119.613 103.666L119.806 103.773L119.998 103.884L120.191 103.997L120.384 104.113L120.576 104.232L120.769 104.354L120.962 104.479L121.154 104.606L121.347 104.737L121.539 104.87L121.732 105.006L121.925 105.145L122.117 105.286L122.31 105.43L122.503 105.576L122.695 105.726L122.888 105.877L123.08 106.031L123.273 106.188L123.466 106.347L123.658 106.509L123.851 106.672L124.044 106.838L124.236 107.007L124.429 107.177L124.622 107.35L124.814 107.525L125.007 107.702L125.2 107.881L125.392 108.061L125.585 108.244L125.778 108.429L125.97 108.616L126.163 108.804L126.356 108.995L126.548 109.186L126.741 109.38L126.933 109.575L127.126 109.772L127.319 109.97L127.511 110.17L127.704 110.372L127.897 110.574L128.089 110.778L128.282 110.983L128.474 111.19L128.667 111.398L128.86 111.606L129.053 111.816L129.245 112.027L129.438 112.239L129.63 112.452L129.823 112.666L130.016 112.88L130.208 113.095L130.401 113.311L130.593 113.528L130.979 113.963L131.171 114.181L134.447 117.915L134.639 118.133L134.831 118.351L135.024 118.567L135.217 118.783L135.41 118.999L135.602 119.214L135.795 119.427L135.987 119.641L136.098 119.762C136.85 120.569 137.477 121.074 138.635 121.308C139.872 121.308 140.92 120.502 141.276 119.389C141.28 119.358 141.301 119.268 141.323 119.177V119.176C141.346 119.081 141.368 118.984 141.373 118.952C141.573 117.59 141.608 116.444 141.608 115.028C141.608 99.2542 128.767 86.4642 112.918 86.439C97.0682 86.4642 84.2275 99.2542 84.2275 115.028C84.2275 116.444 84.2623 117.59 84.4623 118.952C84.4671 118.984 84.4899 119.081 84.5123 119.176C84.5338 119.267 84.555 119.358 84.5597 119.389C84.9158 120.502 85.9634 121.308 87.2002 121.308C88.3585 121.074 88.985 120.569 89.7372 119.762L89.8478 119.641L90.0405 119.427L90.2331 119.214L90.4258 118.999L90.6184 118.783L90.811 118.567L91.0036 118.351L91.3889 117.915L94.6638 114.181L94.8564 113.963L95.2418 113.528L95.4344 113.311L95.6271 113.095L95.8197 112.88L96.0123 112.666L96.2049 112.452L96.3976 112.239L96.5902 112.027L96.7828 111.816L96.9755 111.606L97.1682 111.398L97.3608 111.19L97.5534 110.983L97.746 110.778L97.9387 110.574L98.1313 110.372L98.324 110.17L98.5166 109.97L98.7092 109.772L98.9019 109.575L99.0946 109.38L99.2872 109.186L99.4798 108.995L99.6725 108.804L99.8651 108.616L100.058 108.429L100.25 108.244L100.443 108.061L100.636 107.881L100.828 107.702L101.021 107.525L101.214 107.35L101.406 107.177L101.599 107.007L101.792 106.838L101.984 106.672L102.177 106.509L102.369 106.347L102.562 106.188L102.755 106.031L102.947 105.877L103.14 105.726L103.333 105.576L103.525 105.43L103.718 105.286L103.911 105.145L104.103 105.006L104.296 104.87L104.488 104.737L104.681 104.606L104.874 104.479L105.066 104.354L105.259 104.232L105.452 104.113L105.644 103.997L105.837 103.884L106.03 103.773L106.222 103.666L106.415 103.562L106.607 103.461L106.8 103.363L106.993 103.268L107.185 103.176L107.378 103.088L107.571 103.002L107.763 102.92L107.956 102.841L108.149 102.765L108.341 102.693L108.534 102.624L108.727 102.558L108.919 102.495L109.112 102.436L109.304 102.38L109.497 102.327L109.69 102.278L109.882 102.232L110.075 102.19L110.268 102.151L110.46 102.115L110.653 102.083L110.846 102.054L111.038 102.029L111.231 102.007L111.423 101.988L111.616 101.973L111.809 101.962L112.001 101.954L112.194 101.949L112.387 101.948L112.579 101.95L112.722 101.955ZM109.302 111.302L109.112 111.377L108.919 111.455L108.727 111.538L108.534 111.625L108.341 111.717L108.149 111.813L107.956 111.913L107.763 112.018L107.571 112.127L107.378 112.24L107.185 112.357L106.993 112.479L106.8 112.604L106.607 112.734L106.415 112.868L106.222 113.006L106.03 113.148L105.837 113.294L105.644 113.444L105.452 113.598L105.259 113.755L105.066 113.917L104.874 114.082L104.681 114.251L104.488 114.424L104.296 114.6L104.103 114.78L103.911 114.964L103.718 115.151L103.525 115.342L103.333 115.536L103.14 115.733L102.947 115.934L102.755 116.139L102.562 116.346L102.369 116.557L102.177 116.77L101.984 116.987L101.792 117.207L101.599 117.43L101.406 117.656L101.214 117.885L101.021 118.116L100.828 118.35L100.636 118.587L100.443 118.827L100.25 119.069L100.058 119.314L99.8651 119.561L99.6725 119.811L99.4798 120.063L99.2872 120.317L99.0946 120.573L98.9019 120.832L98.7092 121.093L98.5166 121.355L98.324 121.62L98.1313 121.887L97.9387 122.155L97.746 122.425L97.5534 122.697L97.3608 122.97L97.1682 123.245L96.9755 123.522L96.7828 123.8L96.5902 124.079L96.3976 124.36L96.2049 124.642L96.0123 124.925L95.8197 125.209L95.6271 125.494L95.4344 125.78L95.2418 126.067L95.0491 126.354L94.8856 126.599L91.4557 131.776L91.4256 131.822C91.3254 132.107 91.2709 132.413 91.2709 132.732C91.2709 133.373 91.491 133.964 91.8601 134.432C91.9733 134.553 92.0875 134.674 92.2027 134.794C94.4932 137.174 97.1933 139.162 100.19 140.644C100.487 140.791 100.787 140.933 101.089 141.069C101.243 141.129 101.399 141.184 101.557 141.234C102.238 141.447 102.963 141.561 103.714 141.561C105.164 141.561 106.514 141.134 107.643 140.399C108.137 140.077 108.589 139.696 108.988 139.267C110.118 138.532 111.467 138.105 112.918 138.105C114.368 138.105 115.718 138.532 116.847 139.267C117.246 139.696 117.698 140.077 118.192 140.399C119.321 141.134 120.671 141.561 122.121 141.561C122.873 141.561 123.597 141.447 124.278 141.234C124.436 141.184 124.592 141.129 124.746 141.069C125.049 140.933 125.348 140.791 125.645 140.644C128.642 139.162 131.342 137.174 133.632 134.794C133.748 134.674 133.862 134.553 133.975 134.432C134.344 133.964 134.564 133.373 134.564 132.732C134.564 132.413 134.51 132.107 134.409 131.822L130.95 126.599L130.786 126.354L130.593 126.067L130.401 125.78L130.208 125.494L130.016 125.209L129.823 124.925L129.63 124.642L129.438 124.36L129.245 124.079L129.053 123.8L128.86 123.522L128.667 123.245L128.474 122.97L128.282 122.697L128.089 122.425L127.897 122.155L127.704 121.887L127.511 121.62L127.319 121.355L127.126 121.093L126.933 120.832L126.741 120.573L126.548 120.317L126.356 120.063L126.163 119.811L125.97 119.561L125.778 119.314L125.585 119.069L125.392 118.827L125.2 118.587L125.007 118.35L124.814 118.116L124.622 117.885L124.429 117.656L124.236 117.43L124.044 117.207L123.851 116.987L123.658 116.77L123.466 116.557L123.273 116.346L123.08 116.139L122.888 115.934L122.695 115.733L122.503 115.536L122.31 115.342L122.117 115.151L121.925 114.964L121.732 114.78L121.539 114.6L121.347 114.424L121.154 114.251L120.962 114.082L120.769 113.917L120.576 113.755L120.384 113.598L120.191 113.444L119.998 113.294L119.806 113.148L119.613 113.006L119.42 112.868L119.228 112.734L119.035 112.604L118.843 112.479L118.65 112.357L118.457 112.24L118.265 112.127L118.072 112.018L117.879 111.913L117.687 111.813L117.494 111.717L117.302 111.625L117.109 111.538L116.916 111.455L116.724 111.377L116.533 111.302C115.396 110.931 114.18 110.73 112.918 110.73C111.655 110.73 110.44 110.931 109.302 111.302Z" fill="white"/>
<path d="M166.756 128.982C164.515 128.982 162.504 128.432 160.723 127.332C158.942 126.202 157.53 124.69 156.485 122.796C155.472 120.871 154.965 118.702 154.965 116.288C154.965 113.874 155.518 111.705 156.624 109.78C157.76 107.855 159.279 106.343 161.183 105.243C163.118 104.112 165.283 103.547 167.678 103.547C170.072 103.547 172.222 104.112 174.126 105.243C176.029 106.343 177.534 107.855 178.639 109.78C179.775 111.705 180.343 113.874 180.343 116.288H178.547C178.547 118.702 178.025 120.871 176.981 122.796C175.968 124.69 174.571 126.202 172.79 127.332C171.009 128.432 168.998 128.982 166.756 128.982ZM167.678 124.858C169.244 124.858 170.64 124.491 171.869 123.758C173.097 122.994 174.064 121.971 174.77 120.687C175.476 119.374 175.83 117.907 175.83 116.288C175.83 114.638 175.476 113.171 174.77 111.888C174.064 110.574 173.097 109.551 171.869 108.818C170.64 108.054 169.244 107.672 167.678 107.672C166.142 107.672 164.745 108.054 163.486 108.818C162.258 109.551 161.276 110.574 160.539 111.888C159.833 113.171 159.48 114.638 159.48 116.288C159.48 117.907 159.833 119.374 160.539 120.687C161.276 121.971 162.258 122.994 163.486 123.758C164.745 124.491 166.142 124.858 167.678 124.858ZM177.994 128.845C177.319 128.845 176.751 128.631 176.29 128.204C175.861 127.745 175.646 127.18 175.646 126.508V119.496L176.521 114.638L180.343 116.288V126.508C180.343 127.18 180.113 127.745 179.653 128.204C179.223 128.631 178.67 128.845 177.994 128.845ZM193.323 129.029C191.204 129.029 189.3 128.585 187.612 127.699C185.954 126.783 184.633 125.454 183.651 123.712C182.699 121.971 182.223 119.832 182.223 117.296V106.022C182.223 105.35 182.438 104.8 182.868 104.372C183.328 103.914 183.896 103.685 184.572 103.685C185.248 103.685 185.8 103.914 186.23 104.372C186.69 104.8 186.92 105.35 186.92 106.022V117.296C186.92 119.007 187.243 120.428 187.888 121.558C188.533 122.658 189.408 123.483 190.513 124.033C191.619 124.552 192.862 124.812 194.244 124.812C195.564 124.812 196.731 124.552 197.744 124.033C198.788 123.513 199.617 122.811 200.231 121.925C200.846 121.039 201.152 120.046 201.152 118.946H204.054C204.054 120.84 203.578 122.551 202.626 124.079C201.705 125.607 200.431 126.813 198.803 127.699C197.207 128.585 195.38 129.029 193.323 129.029ZM203.502 128.799C202.826 128.799 202.258 128.585 201.797 128.157C201.367 127.699 201.152 127.134 201.152 126.462V106.022C201.152 105.319 201.367 104.754 201.797 104.326C202.258 103.899 202.826 103.685 203.502 103.685C204.208 103.685 204.776 103.899 205.206 104.326C205.636 104.754 205.85 105.319 205.85 106.022V126.462C205.85 127.134 205.636 127.699 205.206 128.157C204.776 128.585 204.208 128.799 203.502 128.799ZM220.94 128.982C218.546 128.982 216.381 128.432 214.447 127.332C212.543 126.202 211.023 124.674 209.887 122.75C208.782 120.825 208.229 118.656 208.229 116.242C208.229 113.828 208.735 111.674 209.749 109.78C210.793 107.855 212.205 106.343 213.986 105.243C215.767 104.112 217.778 103.547 220.019 103.547C221.831 103.547 223.505 103.929 225.04 104.693C226.575 105.426 227.865 106.435 228.909 107.718V95.3439C228.909 94.6412 229.124 94.0759 229.554 93.6482C230.014 93.2205 230.582 93.0066 231.258 93.0066C231.964 93.0066 232.532 93.2205 232.962 93.6482C233.391 94.0759 233.606 94.6412 233.606 95.3439V116.242C233.606 118.656 233.038 120.825 231.902 122.75C230.797 124.674 229.292 126.202 227.389 127.332C225.485 128.432 223.336 128.982 220.94 128.982ZM220.94 124.858C222.507 124.858 223.904 124.491 225.132 123.758C226.36 122.994 227.328 121.955 228.034 120.642C228.74 119.328 229.093 117.861 229.093 116.242C229.093 114.592 228.74 113.126 228.034 111.842C227.328 110.559 226.36 109.551 225.132 108.818C223.904 108.054 222.507 107.672 220.94 107.672C219.405 107.672 218.008 108.054 216.749 108.818C215.521 109.551 214.539 110.559 213.802 111.842C213.096 113.126 212.742 114.592 212.742 116.242C212.742 117.861 213.096 119.328 213.802 120.642C214.539 121.955 215.521 122.994 216.749 123.758C218.008 124.491 219.405 124.858 220.94 124.858ZM240.106 128.799C239.431 128.799 238.863 128.585 238.402 128.157C237.972 127.699 237.757 127.134 237.757 126.462V106.068C237.757 105.365 237.972 104.8 238.402 104.372C238.863 103.944 239.431 103.731 240.106 103.731C240.813 103.731 241.381 103.944 241.81 104.372C242.24 104.8 242.455 105.365 242.455 106.068V126.462C242.455 127.134 242.24 127.699 241.81 128.157C241.381 128.585 240.813 128.799 240.106 128.799ZM240.106 99.6518C239.277 99.6518 238.556 99.3615 237.942 98.7811C237.358 98.17 237.067 97.452 237.067 96.6271C237.067 95.8021 237.358 95.0994 237.942 94.5189C238.556 93.9079 239.277 93.6024 240.106 93.6024C240.935 93.6024 241.641 93.9079 242.225 94.5189C242.839 95.0994 243.147 95.8021 243.147 96.6271C243.147 97.452 242.839 98.17 242.225 98.7811C241.641 99.3615 240.935 99.6518 240.106 99.6518ZM257.183 129.029C255.064 129.029 253.161 128.585 251.472 127.699C249.814 126.783 248.493 125.454 247.511 123.712C246.559 121.971 246.083 119.832 246.083 117.296V106.022C246.083 105.35 246.298 104.8 246.728 104.372C247.188 103.914 247.756 103.685 248.432 103.685C249.107 103.685 249.66 103.914 250.09 104.372C250.551 104.8 250.781 105.35 250.781 106.022V117.296C250.781 119.007 251.103 120.428 251.748 121.558C252.393 122.658 253.268 123.483 254.374 124.033C255.479 124.552 256.722 124.812 258.104 124.812C259.424 124.812 260.591 124.552 261.604 124.033C262.649 123.513 263.477 122.811 264.092 121.925C264.706 121.039 265.013 120.046 265.013 118.946H267.914C267.914 120.84 267.438 122.551 266.486 124.079C265.565 125.607 264.291 126.813 262.664 127.699C261.067 128.585 259.24 129.029 257.183 129.029ZM267.362 128.799C266.686 128.799 266.118 128.585 265.658 128.157C265.228 127.699 265.013 127.134 265.013 126.462V106.022C265.013 105.319 265.228 104.754 265.658 104.326C266.118 103.899 266.686 103.685 267.362 103.685C268.068 103.685 268.636 103.899 269.065 104.326C269.495 104.754 269.71 105.319 269.71 106.022V126.462C269.71 127.134 269.495 127.699 269.065 128.157C268.636 128.585 268.068 128.799 267.362 128.799ZM306.448 128.845C305.773 128.845 305.205 128.631 304.744 128.204C304.314 127.745 304.099 127.18 304.099 126.508V113.401C304.099 111.476 303.623 110.055 302.671 109.138C301.719 108.191 300.476 107.718 298.94 107.718C297.344 107.718 296.024 108.268 294.98 109.368C293.966 110.467 293.46 111.873 293.46 113.584H289.637C289.637 111.598 290.066 109.856 290.927 108.359C291.786 106.832 292.984 105.64 294.519 104.785C296.085 103.929 297.866 103.502 299.862 103.502C301.612 103.502 303.162 103.883 304.514 104.647C305.865 105.411 306.908 106.542 307.646 108.038C308.413 109.505 308.797 111.293 308.797 113.401V126.508C308.797 127.18 308.582 127.745 308.152 128.204C307.722 128.631 307.154 128.845 306.448 128.845ZM275.728 128.845C275.052 128.845 274.484 128.631 274.024 128.204C273.594 127.745 273.379 127.18 273.379 126.508V106.114C273.379 105.411 273.594 104.846 274.024 104.418C274.484 103.99 275.052 103.776 275.728 103.776C276.434 103.776 277.002 103.99 277.432 104.418C277.861 104.846 278.076 105.411 278.076 106.114V126.508C278.076 127.18 277.861 127.745 277.432 128.204C277.002 128.631 276.434 128.845 275.728 128.845ZM291.111 128.845C290.435 128.845 289.867 128.631 289.407 128.204C288.977 127.745 288.762 127.18 288.762 126.508V113.401C288.762 111.476 288.286 110.055 287.334 109.138C286.382 108.191 285.138 107.718 283.603 107.718C282.007 107.718 280.686 108.268 279.643 109.368C278.598 110.467 278.076 111.873 278.076 113.584H275.175C275.175 111.598 275.574 109.856 276.372 108.359C277.171 106.832 278.276 105.64 279.689 104.785C281.101 103.929 282.713 103.502 284.525 103.502C286.274 103.502 287.826 103.883 289.176 104.647C290.527 105.411 291.572 106.542 292.308 108.038C293.076 109.505 293.46 111.293 293.46 113.401V126.508C293.46 127.18 293.245 127.745 292.815 128.204C292.385 128.631 291.817 128.845 291.111 128.845Z" fill="white"/>
<path d="M157.861 135.188V134.577H163.272V135.188H160.907V142.018H160.226V135.188H157.861ZM165.075 138.53V142.018H164.427V134.577H165.075V137.313H165.133C165.265 137.025 165.467 136.795 165.742 136.623C166.019 136.451 166.369 136.365 166.791 136.365C167.17 136.365 167.503 136.442 167.79 136.597C168.076 136.752 168.3 136.981 168.46 137.284C168.621 137.587 168.701 137.96 168.701 138.403V142.018H168.048V138.443C168.048 137.983 167.92 137.621 167.662 137.357C167.407 137.09 167.062 136.957 166.627 136.957C166.329 136.957 166.062 137.02 165.829 137.146C165.596 137.272 165.412 137.454 165.276 137.691C165.142 137.926 165.075 138.206 165.075 138.53ZM172.427 142.134C171.905 142.134 171.453 142.013 171.072 141.771C170.69 141.526 170.395 141.188 170.186 140.757C169.98 140.324 169.876 139.825 169.876 139.26C169.876 138.698 169.98 138.2 170.186 137.763C170.395 137.325 170.683 136.983 171.05 136.735C171.419 136.486 171.845 136.361 172.329 136.361C172.632 136.361 172.925 136.417 173.207 136.528C173.488 136.637 173.741 136.806 173.965 137.033C174.191 137.259 174.369 137.543 174.5 137.887C174.632 138.229 174.697 138.633 174.697 139.101V139.42H170.325V138.85H174.034C174.034 138.491 173.961 138.169 173.815 137.883C173.672 137.595 173.472 137.368 173.214 137.201C172.959 137.033 172.664 136.95 172.329 136.95C171.974 136.95 171.662 137.044 171.392 137.233C171.123 137.422 170.911 137.671 170.758 137.982C170.608 138.292 170.531 138.631 170.529 138.999V139.34C170.529 139.784 170.605 140.171 170.758 140.503C170.914 140.832 171.133 141.088 171.418 141.269C171.702 141.451 172.038 141.542 172.427 141.542C172.692 141.542 172.924 141.501 173.123 141.419C173.325 141.336 173.493 141.226 173.629 141.088C173.768 140.947 173.872 140.794 173.943 140.626L174.558 140.826C174.473 141.061 174.334 141.278 174.14 141.477C173.948 141.675 173.707 141.835 173.418 141.956C173.132 142.075 172.801 142.134 172.427 142.134ZM178.658 142.018V134.577H182.976V135.188H179.34V137.989H182.637V138.599H179.34V142.018H178.658ZM187.497 139.885V136.437H188.145V142.018H187.497V141.091H187.446C187.315 141.377 187.107 141.616 186.823 141.807C186.538 141.996 186.191 142.091 185.781 142.091C185.423 142.091 185.106 142.013 184.83 141.858C184.553 141.701 184.335 141.47 184.177 141.168C184.019 140.865 183.941 140.493 183.941 140.053V136.437H184.589V140.013C184.589 140.448 184.718 140.8 184.975 141.066C185.233 141.33 185.563 141.462 185.966 141.462C186.219 141.462 186.462 141.402 186.695 141.28C186.928 141.159 187.12 140.983 187.271 140.75C187.421 140.515 187.497 140.227 187.497 139.885ZM191.822 136.437V137.001H189.152V136.437H191.822ZM189.986 135.101H190.638V140.561C190.638 140.794 190.678 140.976 190.758 141.11C190.839 141.24 190.943 141.334 191.072 141.389C191.201 141.443 191.338 141.469 191.484 141.469C191.569 141.469 191.642 141.464 191.702 141.455C191.763 141.443 191.816 141.43 191.862 141.419L192.001 142.003C191.938 142.028 191.86 142.049 191.768 142.069C191.676 142.091 191.561 142.102 191.425 142.102C191.187 142.102 190.958 142.049 190.737 141.945C190.518 141.841 190.338 141.686 190.197 141.48C190.057 141.274 189.986 141.019 189.986 140.714V135.101ZM196.607 139.885V136.437H197.256V142.018H196.607V141.091H196.556C196.425 141.377 196.218 141.616 195.933 141.807C195.649 141.996 195.302 142.091 194.891 142.091C194.534 142.091 194.217 142.013 193.94 141.858C193.663 141.701 193.446 141.47 193.288 141.168C193.13 140.865 193.051 140.493 193.051 140.053V136.437H193.7V140.013C193.7 140.448 193.828 140.8 194.086 141.066C194.343 141.33 194.674 141.462 195.077 141.462C195.33 141.462 195.573 141.402 195.806 141.28C196.039 141.159 196.231 140.983 196.382 140.75C196.532 140.515 196.607 140.227 196.607 139.885ZM198.729 142.018V136.437H199.359V137.295H199.406C199.518 137.014 199.713 136.787 199.989 136.615C200.269 136.441 200.584 136.354 200.937 136.354C200.99 136.354 201.05 136.355 201.115 136.357C201.181 136.36 201.236 136.362 201.279 136.365V137.022C201.25 137.018 201.199 137.01 201.126 137.001C201.053 136.991 200.974 136.986 200.889 136.986C200.598 136.986 200.338 137.048 200.11 137.171C199.884 137.292 199.705 137.461 199.574 137.676C199.443 137.892 199.377 138.138 199.377 138.414V142.018H198.729ZM204.234 142.134C203.712 142.134 203.26 142.013 202.879 141.771C202.497 141.526 202.202 141.188 201.993 140.757C201.787 140.324 201.684 139.825 201.684 139.26C201.684 138.698 201.787 138.2 201.993 137.763C202.202 137.325 202.49 136.983 202.857 136.735C203.226 136.486 203.652 136.361 204.136 136.361C204.44 136.361 204.732 136.417 205.014 136.528C205.296 136.637 205.548 136.806 205.772 137.033C205.998 137.259 206.176 137.543 206.307 137.887C206.439 138.229 206.504 138.633 206.504 139.101V139.42H202.132V138.85H205.841C205.841 138.491 205.768 138.169 205.622 137.883C205.479 137.595 205.279 137.368 205.021 137.201C204.766 137.033 204.471 136.95 204.136 136.95C203.781 136.95 203.469 137.044 203.199 137.233C202.93 137.422 202.718 137.671 202.565 137.982C202.415 138.292 202.338 138.631 202.336 138.999V139.34C202.336 139.784 202.412 140.171 202.565 140.503C202.721 140.832 202.941 141.088 203.225 141.269C203.509 141.451 203.845 141.542 204.234 141.542C204.499 141.542 204.731 141.501 204.93 141.419C205.132 141.336 205.3 141.226 205.436 141.088C205.575 140.947 205.68 140.794 205.75 140.626L206.366 140.826C206.281 141.061 206.141 141.278 205.947 141.477C205.755 141.675 205.514 141.835 205.225 141.956C204.939 142.075 204.608 142.134 204.234 142.134ZM212.506 142.134C212.023 142.134 211.595 142.012 211.223 141.767C210.854 141.523 210.565 141.185 210.356 140.754C210.147 140.32 210.043 139.82 210.043 139.253C210.043 138.682 210.147 138.179 210.356 137.745C210.565 137.309 210.854 136.97 211.223 136.728C211.595 136.483 212.023 136.361 212.506 136.361C212.989 136.361 213.416 136.483 213.785 136.728C214.154 136.973 214.443 137.312 214.652 137.745C214.863 138.179 214.969 138.682 214.969 139.253C214.969 139.82 214.865 140.32 214.656 140.754C214.447 141.185 214.157 141.523 213.785 141.767C213.416 142.012 212.989 142.134 212.506 142.134ZM212.506 141.542C212.894 141.542 213.224 141.438 213.493 141.23C213.763 141.021 213.967 140.744 214.105 140.398C214.246 140.051 214.317 139.67 214.317 139.253C214.317 138.837 214.246 138.454 214.105 138.105C213.967 137.756 213.763 137.477 213.493 137.266C213.224 137.055 212.894 136.95 212.506 136.95C212.12 136.95 211.79 137.055 211.518 137.266C211.249 137.477 211.043 137.756 210.903 138.105C210.764 138.454 210.695 138.837 210.695 139.253C210.695 139.67 210.764 140.051 210.903 140.398C211.043 140.744 211.249 141.021 211.518 141.23C211.788 141.438 212.117 141.542 212.506 141.542ZM218.451 136.437V137.001H215.7V136.437H218.451ZM216.56 142.018V135.62C216.56 135.32 216.629 135.067 216.768 134.861C216.909 134.655 217.092 134.499 217.318 134.392C217.544 134.286 217.783 134.232 218.036 134.232C218.206 134.232 218.347 134.247 218.459 134.276C218.573 134.303 218.663 134.329 218.728 134.356L218.539 134.923C218.49 134.908 218.431 134.891 218.36 134.872C218.29 134.852 218.201 134.843 218.094 134.843C217.812 134.843 217.595 134.921 217.442 135.079C217.289 135.236 217.212 135.461 217.212 135.754L217.209 142.018H216.56ZM227.441 136.903C227.373 136.655 227.273 136.424 227.142 136.209C227.011 135.991 226.848 135.8 226.654 135.638C226.462 135.474 226.24 135.345 225.987 135.253C225.737 135.161 225.457 135.115 225.149 135.115C224.663 135.115 224.228 135.241 223.844 135.493C223.461 135.745 223.157 136.108 222.933 136.583C222.712 137.058 222.602 137.629 222.602 138.298C222.602 138.964 222.714 139.534 222.937 140.009C223.161 140.484 223.467 140.848 223.855 141.102C224.246 141.354 224.693 141.48 225.196 141.48C225.655 141.48 226.061 141.379 226.413 141.175C226.766 140.972 227.04 140.681 227.237 140.303C227.436 139.925 227.533 139.476 227.528 138.955L227.747 139.024H225.356V138.414H228.191V139.024C228.191 139.659 228.063 140.207 227.805 140.67C227.548 141.133 227.194 141.49 226.745 141.742C226.296 141.994 225.779 142.12 225.196 142.12C224.545 142.12 223.976 141.963 223.487 141.651C222.999 141.336 222.619 140.893 222.347 140.321C222.077 139.747 221.942 139.073 221.942 138.298C221.942 137.714 222.02 137.187 222.176 136.717C222.331 136.247 222.551 135.845 222.835 135.511C223.122 135.177 223.461 134.921 223.852 134.744C224.243 134.565 224.675 134.476 225.149 134.476C225.557 134.476 225.93 134.54 226.267 134.668C226.608 134.797 226.906 134.973 227.164 135.198C227.424 135.421 227.636 135.679 227.801 135.972C227.969 136.263 228.082 136.573 228.14 136.903H227.441ZM231.067 142.145C230.729 142.145 230.421 142.08 230.142 141.949C229.862 141.816 229.64 141.624 229.475 141.375C229.309 141.123 229.227 140.818 229.227 140.459C229.227 140.183 229.279 139.951 229.383 139.762C229.488 139.573 229.636 139.418 229.828 139.297C230.02 139.176 230.247 139.08 230.509 139.01C230.772 138.94 231.061 138.885 231.377 138.846C231.69 138.808 231.955 138.774 232.171 138.744C232.39 138.715 232.556 138.669 232.67 138.607C232.784 138.543 232.841 138.442 232.841 138.301V138.171C232.841 137.79 232.727 137.491 232.499 137.273C232.273 137.053 231.947 136.943 231.522 136.943C231.119 136.943 230.79 137.031 230.535 137.208C230.282 137.384 230.105 137.593 230.003 137.833L229.387 137.611C229.513 137.306 229.688 137.062 229.912 136.881C230.135 136.697 230.386 136.565 230.662 136.485C230.939 136.402 231.22 136.361 231.504 136.361C231.718 136.361 231.94 136.389 232.171 136.445C232.404 136.5 232.62 136.597 232.82 136.735C233.019 136.871 233.18 137.061 233.304 137.306C233.428 137.548 233.49 137.856 233.49 138.229V142.018H232.841V141.135H232.801C232.724 141.3 232.608 141.46 232.455 141.615C232.302 141.77 232.11 141.897 231.879 141.996C231.649 142.095 231.378 142.145 231.067 142.145ZM231.154 141.553C231.499 141.553 231.798 141.477 232.051 141.324C232.303 141.171 232.498 140.969 232.634 140.717C232.772 140.463 232.841 140.183 232.841 139.878V139.072C232.793 139.118 232.711 139.159 232.597 139.195C232.486 139.231 232.356 139.264 232.207 139.293C232.062 139.32 231.916 139.343 231.77 139.362C231.624 139.381 231.493 139.398 231.377 139.413C231.061 139.452 230.791 139.512 230.568 139.595C230.344 139.677 230.173 139.791 230.054 139.936C229.935 140.079 229.875 140.263 229.875 140.488C229.875 140.827 229.997 141.09 230.24 141.277C230.483 141.461 230.787 141.553 231.154 141.553ZM235.619 134.577V142.018H234.971V134.577H235.619ZM237.74 134.577V142.018H237.091V134.577H237.74ZM241.475 142.134C240.952 142.134 240.501 142.013 240.119 141.771C239.738 141.526 239.443 141.188 239.234 140.757C239.027 140.324 238.924 139.825 238.924 139.26C238.924 138.698 239.027 138.2 239.234 137.763C239.443 137.325 239.731 136.983 240.097 136.735C240.466 136.486 240.893 136.361 241.376 136.361C241.68 136.361 241.972 136.417 242.254 136.528C242.536 136.637 242.789 136.806 243.012 137.033C243.238 137.259 243.417 137.543 243.548 137.887C243.679 138.229 243.745 138.633 243.745 139.101V139.42H239.372V138.85H243.081C243.081 138.491 243.009 138.169 242.863 137.883C242.72 137.595 242.519 137.368 242.261 137.201C242.006 137.033 241.711 136.95 241.376 136.95C241.021 136.95 240.709 137.044 240.44 137.233C240.17 137.422 239.959 137.671 239.806 137.982C239.655 138.292 239.579 138.631 239.576 138.999V139.34C239.576 139.784 239.653 140.171 239.806 140.503C239.961 140.832 240.181 141.088 240.465 141.269C240.75 141.451 241.086 141.542 241.475 141.542C241.739 141.542 241.971 141.501 242.171 141.419C242.372 141.336 242.541 141.226 242.677 141.088C242.816 140.947 242.92 140.794 242.99 140.626L243.606 140.826C243.521 141.061 243.381 141.278 243.187 141.477C242.995 141.675 242.755 141.835 242.466 141.956C242.179 142.075 241.849 142.134 241.475 142.134ZM244.929 142.018V136.437H245.56V137.295H245.607C245.719 137.014 245.913 136.787 246.19 136.615C246.47 136.441 246.785 136.354 247.137 136.354C247.191 136.354 247.251 136.355 247.316 136.357C247.382 136.36 247.436 136.362 247.48 136.365V137.022C247.451 137.018 247.4 137.01 247.327 137.001C247.254 136.991 247.175 136.986 247.09 136.986C246.799 136.986 246.539 137.048 246.311 137.171C246.085 137.292 245.906 137.461 245.775 137.676C245.644 137.892 245.578 138.138 245.578 138.414V142.018H244.929ZM248.965 144.11C248.836 144.11 248.716 144.099 248.604 144.074C248.492 144.05 248.404 144.023 248.338 143.994L248.513 143.424C248.734 143.492 248.931 143.516 249.103 143.497C249.276 143.48 249.429 143.402 249.562 143.264C249.696 143.128 249.815 142.92 249.919 142.639L250.123 142.072L248.065 136.437H248.768L250.429 141.164H250.48L252.142 136.437H252.845L250.477 142.901C250.377 143.169 250.254 143.394 250.109 143.573C249.963 143.755 249.794 143.889 249.602 143.976C249.413 144.066 249.2 144.11 248.965 144.11ZM256.646 142.018V134.577H260.975V135.188H257.327V137.989H260.745V138.599H257.327V141.408H261.048V142.018H256.646ZM262.76 136.437L264.203 138.817L265.646 136.437H266.4L264.6 139.228L266.4 142.018H265.646L264.203 139.715L262.76 142.018H262.009L263.787 139.228L262.009 136.437H262.76ZM267.516 144.11V136.437H268.146V137.502H268.223C268.3 137.335 268.407 137.164 268.543 136.99C268.679 136.813 268.859 136.664 269.083 136.543C269.308 136.422 269.593 136.361 269.935 136.361C270.397 136.361 270.8 136.482 271.145 136.725C271.492 136.964 271.762 137.301 271.954 137.735C272.148 138.166 272.245 138.668 272.245 139.242C272.245 139.819 272.148 140.324 271.954 140.757C271.762 141.191 271.492 141.529 271.145 141.771C270.8 142.013 270.399 142.134 269.942 142.134C269.605 142.134 269.322 142.074 269.093 141.953C268.868 141.831 268.684 141.682 268.543 141.506C268.405 141.326 268.298 141.152 268.223 140.983H268.164V144.11H267.516ZM268.157 139.231C268.157 139.682 268.224 140.081 268.358 140.43C268.493 140.777 268.688 141.049 268.94 141.248C269.196 141.444 269.504 141.542 269.866 141.542C270.238 141.542 270.551 141.44 270.806 141.237C271.063 141.031 271.259 140.754 271.393 140.405C271.529 140.056 271.597 139.665 271.597 139.231C271.597 138.803 271.53 138.416 271.396 138.072C271.265 137.728 271.071 137.456 270.813 137.255C270.556 137.051 270.24 136.95 269.866 136.95C269.502 136.95 269.192 137.048 268.937 137.244C268.682 137.438 268.487 137.707 268.354 138.051C268.223 138.392 268.157 138.786 268.157 139.231ZM275.687 142.134C275.164 142.134 274.713 142.013 274.331 141.771C273.95 141.526 273.654 141.188 273.446 140.757C273.239 140.324 273.136 139.825 273.136 139.26C273.136 138.698 273.239 138.2 273.446 137.763C273.654 137.325 273.943 136.983 274.309 136.735C274.678 136.486 275.105 136.361 275.588 136.361C275.892 136.361 276.184 136.417 276.466 136.528C276.748 136.637 277.001 136.806 277.224 137.033C277.45 137.259 277.629 137.543 277.76 137.887C277.891 138.229 277.957 138.633 277.957 139.101V139.42H273.584V138.85H277.293C277.293 138.491 277.221 138.169 277.075 137.883C276.932 137.595 276.731 137.368 276.473 137.201C276.218 137.033 275.923 136.95 275.588 136.95C275.233 136.95 274.921 137.044 274.652 137.233C274.382 137.422 274.171 137.671 274.018 137.982C273.867 138.292 273.791 138.631 273.788 138.999V139.34C273.788 139.784 273.865 140.171 274.018 140.503C274.173 140.832 274.393 141.088 274.677 141.269C274.961 141.451 275.298 141.542 275.687 141.542C275.951 141.542 276.183 141.501 276.383 141.419C276.584 141.336 276.753 141.226 276.889 141.088C277.028 140.947 277.132 140.794 277.202 140.626L277.818 140.826C277.733 141.061 277.593 141.278 277.399 141.477C277.207 141.675 276.967 141.835 276.678 141.956C276.391 142.075 276.061 142.134 275.687 142.134ZM279.141 142.018V136.437H279.772V137.295H279.819C279.931 137.014 280.125 136.787 280.402 136.615C280.682 136.441 280.997 136.354 281.349 136.354C281.403 136.354 281.463 136.355 281.528 136.357C281.594 136.36 281.648 136.362 281.692 136.365V137.022C281.663 137.018 281.612 137.01 281.539 137.001C281.466 136.991 281.387 136.986 281.302 136.986C281.011 136.986 280.751 137.048 280.522 137.171C280.297 137.292 280.118 137.461 279.987 137.676C279.856 137.892 279.79 138.138 279.79 138.414V142.018H279.141ZM282.562 142.018V136.437H283.214V142.018H282.562ZM282.893 135.478C282.76 135.478 282.646 135.434 282.551 135.344C282.456 135.252 282.409 135.142 282.409 135.013C282.409 134.885 282.456 134.776 282.551 134.686C282.646 134.594 282.76 134.548 282.893 134.548C283.027 134.548 283.141 134.594 283.236 134.686C283.331 134.776 283.378 134.885 283.378 135.013C283.378 135.142 283.331 135.252 283.236 135.344C283.141 135.434 283.027 135.478 282.893 135.478ZM286.948 142.134C286.425 142.134 285.974 142.013 285.592 141.771C285.211 141.526 284.916 141.188 284.707 140.757C284.5 140.324 284.397 139.825 284.397 139.26C284.397 138.698 284.5 138.2 284.707 137.763C284.916 137.325 285.203 136.983 285.57 136.735C285.94 136.486 286.366 136.361 286.849 136.361C287.153 136.361 287.446 136.417 287.727 136.528C288.009 136.637 288.262 136.806 288.485 137.033C288.711 137.259 288.89 137.543 289.021 137.887C289.152 138.229 289.218 138.633 289.218 139.101V139.42H284.845V138.85H288.555C288.555 138.491 288.482 138.169 288.336 137.883C288.193 137.595 287.992 137.368 287.735 137.201C287.48 137.033 287.185 136.95 286.849 136.95C286.495 136.95 286.183 137.044 285.913 137.233C285.643 137.422 285.432 137.671 285.279 137.982C285.128 138.292 285.052 138.631 285.049 138.999V139.34C285.049 139.784 285.126 140.171 285.279 140.503C285.434 140.832 285.654 141.088 285.938 141.269C286.223 141.451 286.559 141.542 286.948 141.542C287.212 141.542 287.444 141.501 287.644 141.419C287.845 141.336 288.014 141.226 288.15 141.088C288.289 140.947 288.393 140.794 288.463 140.626L289.079 140.826C288.994 141.061 288.855 141.278 288.66 141.477C288.468 141.675 288.228 141.835 287.939 141.956C287.652 142.075 287.322 142.134 286.948 142.134ZM291.051 138.53V142.018H290.403V136.437H291.033V137.313H291.091C291.223 137.027 291.427 136.798 291.703 136.626C291.983 136.452 292.328 136.365 292.738 136.365C293.115 136.365 293.445 136.443 293.729 136.601C294.016 136.756 294.238 136.985 294.396 137.288C294.557 137.59 294.637 137.962 294.637 138.403V142.018H293.988V138.443C293.988 137.985 293.859 137.623 293.602 137.357C293.347 137.09 293.004 136.957 292.574 136.957C292.28 136.957 292.019 137.02 291.791 137.146C291.563 137.272 291.382 137.454 291.248 137.691C291.117 137.926 291.051 138.206 291.051 138.53ZM298.286 142.134C297.786 142.134 297.35 142.01 296.978 141.76C296.609 141.51 296.323 141.169 296.119 140.736C295.914 140.302 295.812 139.808 295.812 139.253C295.812 138.694 295.916 138.196 296.122 137.76C296.331 137.324 296.62 136.983 296.989 136.735C297.359 136.486 297.787 136.361 298.276 136.361C298.65 136.361 298.989 136.434 299.292 136.579C299.596 136.722 299.846 136.924 300.043 137.186C300.242 137.445 300.367 137.748 300.418 138.094H299.762C299.694 137.779 299.53 137.51 299.27 137.288C299.013 137.062 298.685 136.95 298.286 136.95C297.929 136.95 297.614 137.047 297.339 137.241C297.065 137.432 296.85 137.699 296.694 138.043C296.541 138.385 296.465 138.781 296.465 139.231C296.465 139.684 296.54 140.085 296.69 140.434C296.841 140.78 297.053 141.051 297.324 141.248C297.599 141.444 297.92 141.542 298.286 141.542C298.534 141.542 298.76 141.496 298.964 141.404C299.171 141.309 299.343 141.176 299.482 141.004C299.623 140.832 299.717 140.628 299.766 140.39H300.422C300.373 140.727 300.253 141.027 300.061 141.291C299.872 141.553 299.625 141.759 299.321 141.909C299.02 142.059 298.675 142.134 298.286 142.134ZM303.83 142.134C303.308 142.134 302.856 142.013 302.475 141.771C302.093 141.526 301.798 141.188 301.589 140.757C301.383 140.324 301.28 139.825 301.28 139.26C301.28 138.698 301.383 138.2 301.589 137.763C301.798 137.325 302.086 136.983 302.453 136.735C302.822 136.486 303.248 136.361 303.732 136.361C304.035 136.361 304.328 136.417 304.61 136.528C304.892 136.637 305.144 136.806 305.368 137.033C305.594 137.259 305.772 137.543 305.904 137.887C306.035 138.229 306.1 138.633 306.1 139.101V139.42H301.728V138.85H305.437C305.437 138.491 305.364 138.169 305.218 137.883C305.075 137.595 304.875 137.368 304.617 137.201C304.362 137.033 304.067 136.95 303.732 136.95C303.377 136.95 303.065 137.044 302.795 137.233C302.526 137.422 302.315 137.671 302.161 137.982C302.011 138.292 301.934 138.631 301.932 138.999V139.34C301.932 139.784 302.008 140.171 302.161 140.503C302.317 140.832 302.537 141.088 302.821 141.269C303.105 141.451 303.441 141.542 303.83 141.542C304.095 141.542 304.327 141.501 304.526 141.419C304.728 141.336 304.896 141.226 305.033 141.088C305.171 140.947 305.275 140.794 305.346 140.626L305.962 140.826C305.877 141.061 305.737 141.278 305.543 141.477C305.351 141.675 305.11 141.835 304.821 141.956C304.535 142.075 304.204 142.134 303.83 142.134Z" fill="white"/>
</svg>
