<svg width="32" height="32" viewBox="0 0 32 32" fill="none" xmlns="http://www.w3.org/2000/svg">
<path d="M1.79248 23.9827C1.22249 23.9827 0.790853 23.8443 0.497559 23.5676C0.209798 23.2965 0.065918 22.8897 0.065918 22.3474V14.9431C0.065918 14.4008 0.209798 13.9913 0.497559 13.7146C0.790853 13.4379 1.22249 13.2996 1.79248 13.2996H4.25781C4.83333 13.2996 5.26497 13.4379 5.55273 13.7146C5.84603 13.9913 5.99268 14.4008 5.99268 14.9431V22.3474C5.99268 22.8897 5.84603 23.2965 5.55273 23.5676C5.26497 23.8443 4.83333 23.9827 4.25781 23.9827H1.79248ZM9.25488 23.9827C8.6849 23.9827 8.25326 23.8443 7.95996 23.5676C7.6722 23.2965 7.52832 22.8897 7.52832 22.3474V12.5276C7.52832 11.9853 7.6722 11.5758 7.95996 11.2991C8.25326 11.0224 8.6849 10.884 9.25488 10.884H11.7285C12.2985 10.884 12.7274 11.0224 13.0151 11.2991C13.3084 11.5758 13.4551 11.9853 13.4551 12.5276V22.3474C13.4551 22.8897 13.3084 23.2965 13.0151 23.5676C12.7274 23.8443 12.2985 23.9827 11.7285 23.9827H9.25488ZM16.7173 23.9827C16.1528 23.9827 15.724 23.8443 15.4307 23.5676C15.1429 23.2965 14.999 22.8897 14.999 22.3474V10.1038C14.999 9.56144 15.1429 9.15194 15.4307 8.87524C15.724 8.59855 16.1528 8.46021 16.7173 8.46021H19.1909C19.7664 8.46021 20.1981 8.59855 20.4858 8.87524C20.7791 9.15194 20.9258 9.56144 20.9258 10.1038V22.3474C20.9258 22.8897 20.7791 23.2965 20.4858 23.5676C20.1981 23.8443 19.7664 23.9827 19.1909 23.9827H16.7173Z" fill="#4361EE"/>
</svg>
